<?xml version="1.0" standalone="no"?>
<svg xmlns="http://www.w3.org/2000/svg" width="1024" height="1024" xmlns:xlink="http://www.w3.org/1999/xlink" viewBox="0 0 1024 1024"><defs><clipPath id="clip-path-dot-color-3"><circle cx="268.5" cy="25.5" r="13.5" transform="rotate(0,268.5,25.5)"/><circle cx="349.5" cy="25.5" r="13.5" transform="rotate(0,349.5,25.5)"/><circle cx="376.5" cy="25.5" r="13.5" transform="rotate(0,376.5,25.5)"/><circle cx="457.5" cy="25.5" r="13.5" transform="rotate(0,457.5,25.5)"/><circle cx="484.5" cy="25.5" r="13.5" transform="rotate(0,484.5,25.5)"/><circle cx="511.5" cy="25.5" r="13.5" transform="rotate(0,511.5,25.5)"/><circle cx="538.5" cy="25.5" r="13.5" transform="rotate(0,538.5,25.5)"/><circle cx="700.5" cy="25.5" r="13.5" transform="rotate(0,700.5,25.5)"/><circle cx="727.5" cy="25.5" r="13.5" transform="rotate(0,727.5,25.5)"/><circle cx="754.5" cy="25.5" r="13.5" transform="rotate(0,754.5,25.5)"/><circle cx="781.5" cy="25.5" r="13.5" transform="rotate(0,781.5,25.5)"/><circle cx="241.5" cy="52.5" r="13.5" transform="rotate(0,241.5,52.5)"/><circle cx="349.5" cy="52.5" r="13.5" transform="rotate(0,349.5,52.5)"/><circle cx="403.5" cy="52.5" r="13.5" transform="rotate(0,403.5,52.5)"/><circle cx="484.5" cy="52.5" r="13.5" transform="rotate(0,484.5,52.5)"/><circle cx="538.5" cy="52.5" r="13.5" transform="rotate(0,538.5,52.5)"/><circle cx="592.5" cy="52.5" r="13.5" transform="rotate(0,592.5,52.5)"/><circle cx="673.5" cy="52.5" r="13.5" transform="rotate(0,673.5,52.5)"/><circle cx="700.5" cy="52.5" r="13.5" transform="rotate(0,700.5,52.5)"/><circle cx="781.5" cy="52.5" r="13.5" transform="rotate(0,781.5,52.5)"/><circle cx="268.5" cy="79.5" r="13.5" transform="rotate(0,268.5,79.5)"/><circle cx="322.5" cy="79.5" r="13.5" transform="rotate(0,322.5,79.5)"/><circle cx="403.5" cy="79.5" r="13.5" transform="rotate(0,403.5,79.5)"/><circle cx="430.5" cy="79.5" r="13.5" transform="rotate(0,430.5,79.5)"/><circle cx="484.5" cy="79.5" r="13.5" transform="rotate(0,484.5,79.5)"/><circle cx="511.5" cy="79.5" r="13.5" transform="rotate(0,511.5,79.5)"/><circle cx="646.5" cy="79.5" r="13.5" transform="rotate(0,646.5,79.5)"/><circle cx="673.5" cy="79.5" r="13.5" transform="rotate(0,673.5,79.5)"/><circle cx="727.5" cy="79.5" r="13.5" transform="rotate(0,727.5,79.5)"/><circle cx="295.5" cy="106.5" r="13.5" transform="rotate(0,295.5,106.5)"/><circle cx="322.5" cy="106.5" r="13.5" transform="rotate(0,322.5,106.5)"/><circle cx="349.5" cy="106.5" r="13.5" transform="rotate(0,349.5,106.5)"/><circle cx="376.5" cy="106.5" r="13.5" transform="rotate(0,376.5,106.5)"/><circle cx="484.5" cy="106.5" r="13.5" transform="rotate(0,484.5,106.5)"/><circle cx="538.5" cy="106.5" r="13.5" transform="rotate(0,538.5,106.5)"/><circle cx="565.5" cy="106.5" r="13.5" transform="rotate(0,565.5,106.5)"/><circle cx="619.5" cy="106.5" r="13.5" transform="rotate(0,619.5,106.5)"/><circle cx="727.5" cy="106.5" r="13.5" transform="rotate(0,727.5,106.5)"/><circle cx="781.5" cy="106.5" r="13.5" transform="rotate(0,781.5,106.5)"/><circle cx="268.5" cy="133.5" r="13.5" transform="rotate(0,268.5,133.5)"/><circle cx="295.5" cy="133.5" r="13.5" transform="rotate(0,295.5,133.5)"/><circle cx="376.5" cy="133.5" r="13.5" transform="rotate(0,376.5,133.5)"/><circle cx="430.5" cy="133.5" r="13.5" transform="rotate(0,430.5,133.5)"/><circle cx="484.5" cy="133.5" r="13.5" transform="rotate(0,484.5,133.5)"/><circle cx="592.5" cy="133.5" r="13.5" transform="rotate(0,592.5,133.5)"/><circle cx="700.5" cy="133.5" r="13.5" transform="rotate(0,700.5,133.5)"/><circle cx="727.5" cy="133.5" r="13.5" transform="rotate(0,727.5,133.5)"/><circle cx="754.5" cy="133.5" r="13.5" transform="rotate(0,754.5,133.5)"/><circle cx="241.5" cy="160.5" r="13.5" transform="rotate(0,241.5,160.5)"/><circle cx="295.5" cy="160.5" r="13.5" transform="rotate(0,295.5,160.5)"/><circle cx="322.5" cy="160.5" r="13.5" transform="rotate(0,322.5,160.5)"/><circle cx="349.5" cy="160.5" r="13.5" transform="rotate(0,349.5,160.5)"/><circle cx="457.5" cy="160.5" r="13.5" transform="rotate(0,457.5,160.5)"/><circle cx="484.5" cy="160.5" r="13.5" transform="rotate(0,484.5,160.5)"/><circle cx="511.5" cy="160.5" r="13.5" transform="rotate(0,511.5,160.5)"/><circle cx="619.5" cy="160.5" r="13.5" transform="rotate(0,619.5,160.5)"/><circle cx="673.5" cy="160.5" r="13.5" transform="rotate(0,673.5,160.5)"/><circle cx="700.5" cy="160.5" r="13.5" transform="rotate(0,700.5,160.5)"/><circle cx="727.5" cy="160.5" r="13.5" transform="rotate(0,727.5,160.5)"/><circle cx="781.5" cy="160.5" r="13.5" transform="rotate(0,781.5,160.5)"/><circle cx="241.5" cy="187.5" r="13.5" transform="rotate(0,241.5,187.5)"/><circle cx="295.5" cy="187.5" r="13.5" transform="rotate(0,295.5,187.5)"/><circle cx="349.5" cy="187.5" r="13.5" transform="rotate(0,349.5,187.5)"/><circle cx="403.5" cy="187.5" r="13.5" transform="rotate(0,403.5,187.5)"/><circle cx="457.5" cy="187.5" r="13.5" transform="rotate(0,457.5,187.5)"/><circle cx="511.5" cy="187.5" r="13.5" transform="rotate(0,511.5,187.5)"/><circle cx="565.5" cy="187.5" r="13.5" transform="rotate(0,565.5,187.5)"/><circle cx="619.5" cy="187.5" r="13.5" transform="rotate(0,619.5,187.5)"/><circle cx="673.5" cy="187.5" r="13.5" transform="rotate(0,673.5,187.5)"/><circle cx="727.5" cy="187.5" r="13.5" transform="rotate(0,727.5,187.5)"/><circle cx="781.5" cy="187.5" r="13.5" transform="rotate(0,781.5,187.5)"/><circle cx="241.5" cy="214.5" r="13.5" transform="rotate(0,241.5,214.5)"/><circle cx="295.5" cy="214.5" r="13.5" transform="rotate(0,295.5,214.5)"/><circle cx="430.5" cy="214.5" r="13.5" transform="rotate(0,430.5,214.5)"/><circle cx="484.5" cy="214.5" r="13.5" transform="rotate(0,484.5,214.5)"/><circle cx="538.5" cy="214.5" r="13.5" transform="rotate(0,538.5,214.5)"/><circle cx="565.5" cy="214.5" r="13.5" transform="rotate(0,565.5,214.5)"/><circle cx="592.5" cy="214.5" r="13.5" transform="rotate(0,592.5,214.5)"/><circle cx="619.5" cy="214.5" r="13.5" transform="rotate(0,619.5,214.5)"/><circle cx="673.5" cy="214.5" r="13.5" transform="rotate(0,673.5,214.5)"/><circle cx="727.5" cy="214.5" r="13.5" transform="rotate(0,727.5,214.5)"/><circle cx="133.5" cy="241.5" r="13.5" transform="rotate(0,133.5,241.5)"/><circle cx="160.5" cy="241.5" r="13.5" transform="rotate(0,160.5,241.5)"/><circle cx="187.5" cy="241.5" r="13.5" transform="rotate(0,187.5,241.5)"/><circle cx="214.5" cy="241.5" r="13.5" transform="rotate(0,214.5,241.5)"/><circle cx="268.5" cy="241.5" r="13.5" transform="rotate(0,268.5,241.5)"/><circle cx="322.5" cy="241.5" r="13.5" transform="rotate(0,322.5,241.5)"/><circle cx="349.5" cy="241.5" r="13.5" transform="rotate(0,349.5,241.5)"/><circle cx="376.5" cy="241.5" r="13.5" transform="rotate(0,376.5,241.5)"/><circle cx="403.5" cy="241.5" r="13.5" transform="rotate(0,403.5,241.5)"/><circle cx="484.5" cy="241.5" r="13.5" transform="rotate(0,484.5,241.5)"/><circle cx="511.5" cy="241.5" r="13.5" transform="rotate(0,511.5,241.5)"/><circle cx="565.5" cy="241.5" r="13.5" transform="rotate(0,565.5,241.5)"/><circle cx="592.5" cy="241.5" r="13.5" transform="rotate(0,592.5,241.5)"/><circle cx="619.5" cy="241.5" r="13.5" transform="rotate(0,619.5,241.5)"/><circle cx="646.5" cy="241.5" r="13.5" transform="rotate(0,646.5,241.5)"/><circle cx="673.5" cy="241.5" r="13.5" transform="rotate(0,673.5,241.5)"/><circle cx="700.5" cy="241.5" r="13.5" transform="rotate(0,700.5,241.5)"/><circle cx="727.5" cy="241.5" r="13.5" transform="rotate(0,727.5,241.5)"/><circle cx="754.5" cy="241.5" r="13.5" transform="rotate(0,754.5,241.5)"/><circle cx="835.5" cy="241.5" r="13.5" transform="rotate(0,835.5,241.5)"/><circle cx="862.5" cy="241.5" r="13.5" transform="rotate(0,862.5,241.5)"/><circle cx="970.5" cy="241.5" r="13.5" transform="rotate(0,970.5,241.5)"/><circle cx="79.5" cy="268.5" r="13.5" transform="rotate(0,79.5,268.5)"/><circle cx="133.5" cy="268.5" r="13.5" transform="rotate(0,133.5,268.5)"/><circle cx="160.5" cy="268.5" r="13.5" transform="rotate(0,160.5,268.5)"/><circle cx="214.5" cy="268.5" r="13.5" transform="rotate(0,214.5,268.5)"/><circle cx="268.5" cy="268.5" r="13.5" transform="rotate(0,268.5,268.5)"/><circle cx="403.5" cy="268.5" r="13.5" transform="rotate(0,403.5,268.5)"/><circle cx="430.5" cy="268.5" r="13.5" transform="rotate(0,430.5,268.5)"/><circle cx="457.5" cy="268.5" r="13.5" transform="rotate(0,457.5,268.5)"/><circle cx="511.5" cy="268.5" r="13.5" transform="rotate(0,511.5,268.5)"/><circle cx="538.5" cy="268.5" r="13.5" transform="rotate(0,538.5,268.5)"/><circle cx="565.5" cy="268.5" r="13.5" transform="rotate(0,565.5,268.5)"/><circle cx="592.5" cy="268.5" r="13.5" transform="rotate(0,592.5,268.5)"/><circle cx="619.5" cy="268.5" r="13.5" transform="rotate(0,619.5,268.5)"/><circle cx="646.5" cy="268.5" r="13.5" transform="rotate(0,646.5,268.5)"/><circle cx="673.5" cy="268.5" r="13.5" transform="rotate(0,673.5,268.5)"/><circle cx="781.5" cy="268.5" r="13.5" transform="rotate(0,781.5,268.5)"/><circle cx="835.5" cy="268.5" r="13.5" transform="rotate(0,835.5,268.5)"/><circle cx="862.5" cy="268.5" r="13.5" transform="rotate(0,862.5,268.5)"/><circle cx="889.5" cy="268.5" r="13.5" transform="rotate(0,889.5,268.5)"/><circle cx="916.5" cy="268.5" r="13.5" transform="rotate(0,916.5,268.5)"/><circle cx="970.5" cy="268.5" r="13.5" transform="rotate(0,970.5,268.5)"/><circle cx="52.5" cy="295.5" r="13.5" transform="rotate(0,52.5,295.5)"/><circle cx="106.5" cy="295.5" r="13.5" transform="rotate(0,106.5,295.5)"/><circle cx="187.5" cy="295.5" r="13.5" transform="rotate(0,187.5,295.5)"/><circle cx="241.5" cy="295.5" r="13.5" transform="rotate(0,241.5,295.5)"/><circle cx="268.5" cy="295.5" r="13.5" transform="rotate(0,268.5,295.5)"/><circle cx="295.5" cy="295.5" r="13.5" transform="rotate(0,295.5,295.5)"/><circle cx="322.5" cy="295.5" r="13.5" transform="rotate(0,322.5,295.5)"/><circle cx="349.5" cy="295.5" r="13.5" transform="rotate(0,349.5,295.5)"/><circle cx="457.5" cy="295.5" r="13.5" transform="rotate(0,457.5,295.5)"/><circle cx="511.5" cy="295.5" r="13.5" transform="rotate(0,511.5,295.5)"/><circle cx="538.5" cy="295.5" r="13.5" transform="rotate(0,538.5,295.5)"/><circle cx="592.5" cy="295.5" r="13.5" transform="rotate(0,592.5,295.5)"/><circle cx="619.5" cy="295.5" r="13.5" transform="rotate(0,619.5,295.5)"/><circle cx="646.5" cy="295.5" r="13.5" transform="rotate(0,646.5,295.5)"/><circle cx="700.5" cy="295.5" r="13.5" transform="rotate(0,700.5,295.5)"/><circle cx="727.5" cy="295.5" r="13.5" transform="rotate(0,727.5,295.5)"/><circle cx="781.5" cy="295.5" r="13.5" transform="rotate(0,781.5,295.5)"/><circle cx="808.5" cy="295.5" r="13.5" transform="rotate(0,808.5,295.5)"/><circle cx="862.5" cy="295.5" r="13.5" transform="rotate(0,862.5,295.5)"/><circle cx="889.5" cy="295.5" r="13.5" transform="rotate(0,889.5,295.5)"/><circle cx="916.5" cy="295.5" r="13.5" transform="rotate(0,916.5,295.5)"/><circle cx="943.5" cy="295.5" r="13.5" transform="rotate(0,943.5,295.5)"/><circle cx="25.5" cy="322.5" r="13.5" transform="rotate(0,25.5,322.5)"/><circle cx="52.5" cy="322.5" r="13.5" transform="rotate(0,52.5,322.5)"/><circle cx="106.5" cy="322.5" r="13.5" transform="rotate(0,106.5,322.5)"/><circle cx="268.5" cy="322.5" r="13.5" transform="rotate(0,268.5,322.5)"/><circle cx="349.5" cy="322.5" r="13.5" transform="rotate(0,349.5,322.5)"/><circle cx="376.5" cy="322.5" r="13.5" transform="rotate(0,376.5,322.5)"/><circle cx="403.5" cy="322.5" r="13.5" transform="rotate(0,403.5,322.5)"/><circle cx="430.5" cy="322.5" r="13.5" transform="rotate(0,430.5,322.5)"/><circle cx="727.5" cy="322.5" r="13.5" transform="rotate(0,727.5,322.5)"/><circle cx="808.5" cy="322.5" r="13.5" transform="rotate(0,808.5,322.5)"/><circle cx="862.5" cy="322.5" r="13.5" transform="rotate(0,862.5,322.5)"/><circle cx="916.5" cy="322.5" r="13.5" transform="rotate(0,916.5,322.5)"/><circle cx="943.5" cy="322.5" r="13.5" transform="rotate(0,943.5,322.5)"/><circle cx="970.5" cy="322.5" r="13.5" transform="rotate(0,970.5,322.5)"/><circle cx="997.5" cy="322.5" r="13.5" transform="rotate(0,997.5,322.5)"/><circle cx="25.5" cy="349.5" r="13.5" transform="rotate(0,25.5,349.5)"/><circle cx="52.5" cy="349.5" r="13.5" transform="rotate(0,52.5,349.5)"/><circle cx="79.5" cy="349.5" r="13.5" transform="rotate(0,79.5,349.5)"/><circle cx="133.5" cy="349.5" r="13.5" transform="rotate(0,133.5,349.5)"/><circle cx="187.5" cy="349.5" r="13.5" transform="rotate(0,187.5,349.5)"/><circle cx="295.5" cy="349.5" r="13.5" transform="rotate(0,295.5,349.5)"/><circle cx="376.5" cy="349.5" r="13.5" transform="rotate(0,376.5,349.5)"/><circle cx="403.5" cy="349.5" r="13.5" transform="rotate(0,403.5,349.5)"/><circle cx="430.5" cy="349.5" r="13.5" transform="rotate(0,430.5,349.5)"/><circle cx="565.5" cy="349.5" r="13.5" transform="rotate(0,565.5,349.5)"/><circle cx="592.5" cy="349.5" r="13.5" transform="rotate(0,592.5,349.5)"/><circle cx="619.5" cy="349.5" r="13.5" transform="rotate(0,619.5,349.5)"/><circle cx="754.5" cy="349.5" r="13.5" transform="rotate(0,754.5,349.5)"/><circle cx="808.5" cy="349.5" r="13.5" transform="rotate(0,808.5,349.5)"/><circle cx="835.5" cy="349.5" r="13.5" transform="rotate(0,835.5,349.5)"/><circle cx="862.5" cy="349.5" r="13.5" transform="rotate(0,862.5,349.5)"/><circle cx="916.5" cy="349.5" r="13.5" transform="rotate(0,916.5,349.5)"/><circle cx="943.5" cy="349.5" r="13.5" transform="rotate(0,943.5,349.5)"/><circle cx="970.5" cy="349.5" r="13.5" transform="rotate(0,970.5,349.5)"/><circle cx="79.5" cy="376.5" r="13.5" transform="rotate(0,79.5,376.5)"/><circle cx="106.5" cy="376.5" r="13.5" transform="rotate(0,106.5,376.5)"/><circle cx="160.5" cy="376.5" r="13.5" transform="rotate(0,160.5,376.5)"/><circle cx="214.5" cy="376.5" r="13.5" transform="rotate(0,214.5,376.5)"/><circle cx="295.5" cy="376.5" r="13.5" transform="rotate(0,295.5,376.5)"/><circle cx="646.5" cy="376.5" r="13.5" transform="rotate(0,646.5,376.5)"/><circle cx="727.5" cy="376.5" r="13.5" transform="rotate(0,727.5,376.5)"/><circle cx="781.5" cy="376.5" r="13.5" transform="rotate(0,781.5,376.5)"/><circle cx="808.5" cy="376.5" r="13.5" transform="rotate(0,808.5,376.5)"/><circle cx="889.5" cy="376.5" r="13.5" transform="rotate(0,889.5,376.5)"/><circle cx="943.5" cy="376.5" r="13.5" transform="rotate(0,943.5,376.5)"/><circle cx="25.5" cy="403.5" r="13.5" transform="rotate(0,25.5,403.5)"/><circle cx="187.5" cy="403.5" r="13.5" transform="rotate(0,187.5,403.5)"/><circle cx="295.5" cy="403.5" r="13.5" transform="rotate(0,295.5,403.5)"/><circle cx="349.5" cy="403.5" r="13.5" transform="rotate(0,349.5,403.5)"/><circle cx="376.5" cy="403.5" r="13.5" transform="rotate(0,376.5,403.5)"/><circle cx="511.5" cy="403.5" r="13.5" transform="rotate(0,511.5,403.5)"/><circle cx="565.5" cy="403.5" r="13.5" transform="rotate(0,565.5,403.5)"/><circle cx="592.5" cy="403.5" r="13.5" transform="rotate(0,592.5,403.5)"/><circle cx="646.5" cy="403.5" r="13.5" transform="rotate(0,646.5,403.5)"/><circle cx="673.5" cy="403.5" r="13.5" transform="rotate(0,673.5,403.5)"/><circle cx="727.5" cy="403.5" r="13.5" transform="rotate(0,727.5,403.5)"/><circle cx="754.5" cy="403.5" r="13.5" transform="rotate(0,754.5,403.5)"/><circle cx="916.5" cy="403.5" r="13.5" transform="rotate(0,916.5,403.5)"/><circle cx="943.5" cy="403.5" r="13.5" transform="rotate(0,943.5,403.5)"/><circle cx="52.5" cy="430.5" r="13.5" transform="rotate(0,52.5,430.5)"/><circle cx="79.5" cy="430.5" r="13.5" transform="rotate(0,79.5,430.5)"/><circle cx="133.5" cy="430.5" r="13.5" transform="rotate(0,133.5,430.5)"/><circle cx="214.5" cy="430.5" r="13.5" transform="rotate(0,214.5,430.5)"/><circle cx="241.5" cy="430.5" r="13.5" transform="rotate(0,241.5,430.5)"/><circle cx="268.5" cy="430.5" r="13.5" transform="rotate(0,268.5,430.5)"/><circle cx="295.5" cy="430.5" r="13.5" transform="rotate(0,295.5,430.5)"/><circle cx="322.5" cy="430.5" r="13.5" transform="rotate(0,322.5,430.5)"/><circle cx="376.5" cy="430.5" r="13.5" transform="rotate(0,376.5,430.5)"/><circle cx="403.5" cy="430.5" r="13.5" transform="rotate(0,403.5,430.5)"/><circle cx="430.5" cy="430.5" r="13.5" transform="rotate(0,430.5,430.5)"/><circle cx="457.5" cy="430.5" r="13.5" transform="rotate(0,457.5,430.5)"/><circle cx="511.5" cy="430.5" r="13.5" transform="rotate(0,511.5,430.5)"/><circle cx="538.5" cy="430.5" r="13.5" transform="rotate(0,538.5,430.5)"/><circle cx="592.5" cy="430.5" r="13.5" transform="rotate(0,592.5,430.5)"/><circle cx="646.5" cy="430.5" r="13.5" transform="rotate(0,646.5,430.5)"/><circle cx="727.5" cy="430.5" r="13.5" transform="rotate(0,727.5,430.5)"/><circle cx="754.5" cy="430.5" r="13.5" transform="rotate(0,754.5,430.5)"/><circle cx="808.5" cy="430.5" r="13.5" transform="rotate(0,808.5,430.5)"/><circle cx="862.5" cy="430.5" r="13.5" transform="rotate(0,862.5,430.5)"/><circle cx="943.5" cy="430.5" r="13.5" transform="rotate(0,943.5,430.5)"/><circle cx="997.5" cy="430.5" r="13.5" transform="rotate(0,997.5,430.5)"/><circle cx="25.5" cy="457.5" r="13.5" transform="rotate(0,25.5,457.5)"/><circle cx="106.5" cy="457.5" r="13.5" transform="rotate(0,106.5,457.5)"/><circle cx="187.5" cy="457.5" r="13.5" transform="rotate(0,187.5,457.5)"/><circle cx="214.5" cy="457.5" r="13.5" transform="rotate(0,214.5,457.5)"/><circle cx="295.5" cy="457.5" r="13.5" transform="rotate(0,295.5,457.5)"/><circle cx="349.5" cy="457.5" r="13.5" transform="rotate(0,349.5,457.5)"/><circle cx="430.5" cy="457.5" r="13.5" transform="rotate(0,430.5,457.5)"/><circle cx="511.5" cy="457.5" r="13.5" transform="rotate(0,511.5,457.5)"/><circle cx="592.5" cy="457.5" r="13.5" transform="rotate(0,592.5,457.5)"/><circle cx="727.5" cy="457.5" r="13.5" transform="rotate(0,727.5,457.5)"/><circle cx="835.5" cy="457.5" r="13.5" transform="rotate(0,835.5,457.5)"/><circle cx="862.5" cy="457.5" r="13.5" transform="rotate(0,862.5,457.5)"/><circle cx="916.5" cy="457.5" r="13.5" transform="rotate(0,916.5,457.5)"/><circle cx="943.5" cy="457.5" r="13.5" transform="rotate(0,943.5,457.5)"/><circle cx="997.5" cy="457.5" r="13.5" transform="rotate(0,997.5,457.5)"/><circle cx="106.5" cy="484.5" r="13.5" transform="rotate(0,106.5,484.5)"/><circle cx="133.5" cy="484.5" r="13.5" transform="rotate(0,133.5,484.5)"/><circle cx="160.5" cy="484.5" r="13.5" transform="rotate(0,160.5,484.5)"/><circle cx="376.5" cy="484.5" r="13.5" transform="rotate(0,376.5,484.5)"/><circle cx="430.5" cy="484.5" r="13.5" transform="rotate(0,430.5,484.5)"/><circle cx="484.5" cy="484.5" r="13.5" transform="rotate(0,484.5,484.5)"/><circle cx="511.5" cy="484.5" r="13.5" transform="rotate(0,511.5,484.5)"/><circle cx="619.5" cy="484.5" r="13.5" transform="rotate(0,619.5,484.5)"/><circle cx="646.5" cy="484.5" r="13.5" transform="rotate(0,646.5,484.5)"/><circle cx="673.5" cy="484.5" r="13.5" transform="rotate(0,673.5,484.5)"/><circle cx="700.5" cy="484.5" r="13.5" transform="rotate(0,700.5,484.5)"/><circle cx="727.5" cy="484.5" r="13.5" transform="rotate(0,727.5,484.5)"/><circle cx="754.5" cy="484.5" r="13.5" transform="rotate(0,754.5,484.5)"/><circle cx="781.5" cy="484.5" r="13.5" transform="rotate(0,781.5,484.5)"/><circle cx="889.5" cy="484.5" r="13.5" transform="rotate(0,889.5,484.5)"/><circle cx="79.5" cy="511.5" r="13.5" transform="rotate(0,79.5,511.5)"/><circle cx="106.5" cy="511.5" r="13.5" transform="rotate(0,106.5,511.5)"/><circle cx="133.5" cy="511.5" r="13.5" transform="rotate(0,133.5,511.5)"/><circle cx="187.5" cy="511.5" r="13.5" transform="rotate(0,187.5,511.5)"/><circle cx="214.5" cy="511.5" r="13.5" transform="rotate(0,214.5,511.5)"/><circle cx="241.5" cy="511.5" r="13.5" transform="rotate(0,241.5,511.5)"/><circle cx="268.5" cy="511.5" r="13.5" transform="rotate(0,268.5,511.5)"/><circle cx="295.5" cy="511.5" r="13.5" transform="rotate(0,295.5,511.5)"/><circle cx="430.5" cy="511.5" r="13.5" transform="rotate(0,430.5,511.5)"/><circle cx="457.5" cy="511.5" r="13.5" transform="rotate(0,457.5,511.5)"/><circle cx="484.5" cy="511.5" r="13.5" transform="rotate(0,484.5,511.5)"/><circle cx="511.5" cy="511.5" r="13.5" transform="rotate(0,511.5,511.5)"/><circle cx="565.5" cy="511.5" r="13.5" transform="rotate(0,565.5,511.5)"/><circle cx="592.5" cy="511.5" r="13.5" transform="rotate(0,592.5,511.5)"/><circle cx="646.5" cy="511.5" r="13.5" transform="rotate(0,646.5,511.5)"/><circle cx="727.5" cy="511.5" r="13.5" transform="rotate(0,727.5,511.5)"/><circle cx="754.5" cy="511.5" r="13.5" transform="rotate(0,754.5,511.5)"/><circle cx="889.5" cy="511.5" r="13.5" transform="rotate(0,889.5,511.5)"/><circle cx="25.5" cy="538.5" r="13.5" transform="rotate(0,25.5,538.5)"/><circle cx="52.5" cy="538.5" r="13.5" transform="rotate(0,52.5,538.5)"/><circle cx="106.5" cy="538.5" r="13.5" transform="rotate(0,106.5,538.5)"/><circle cx="133.5" cy="538.5" r="13.5" transform="rotate(0,133.5,538.5)"/><circle cx="268.5" cy="538.5" r="13.5" transform="rotate(0,268.5,538.5)"/><circle cx="295.5" cy="538.5" r="13.5" transform="rotate(0,295.5,538.5)"/><circle cx="322.5" cy="538.5" r="13.5" transform="rotate(0,322.5,538.5)"/><circle cx="349.5" cy="538.5" r="13.5" transform="rotate(0,349.5,538.5)"/><circle cx="430.5" cy="538.5" r="13.5" transform="rotate(0,430.5,538.5)"/><circle cx="457.5" cy="538.5" r="13.5" transform="rotate(0,457.5,538.5)"/><circle cx="511.5" cy="538.5" r="13.5" transform="rotate(0,511.5,538.5)"/><circle cx="565.5" cy="538.5" r="13.5" transform="rotate(0,565.5,538.5)"/><circle cx="592.5" cy="538.5" r="13.5" transform="rotate(0,592.5,538.5)"/><circle cx="619.5" cy="538.5" r="13.5" transform="rotate(0,619.5,538.5)"/><circle cx="646.5" cy="538.5" r="13.5" transform="rotate(0,646.5,538.5)"/><circle cx="673.5" cy="538.5" r="13.5" transform="rotate(0,673.5,538.5)"/><circle cx="781.5" cy="538.5" r="13.5" transform="rotate(0,781.5,538.5)"/><circle cx="943.5" cy="538.5" r="13.5" transform="rotate(0,943.5,538.5)"/><circle cx="52.5" cy="565.5" r="13.5" transform="rotate(0,52.5,565.5)"/><circle cx="187.5" cy="565.5" r="13.5" transform="rotate(0,187.5,565.5)"/><circle cx="241.5" cy="565.5" r="13.5" transform="rotate(0,241.5,565.5)"/><circle cx="268.5" cy="565.5" r="13.5" transform="rotate(0,268.5,565.5)"/><circle cx="349.5" cy="565.5" r="13.5" transform="rotate(0,349.5,565.5)"/><circle cx="376.5" cy="565.5" r="13.5" transform="rotate(0,376.5,565.5)"/><circle cx="457.5" cy="565.5" r="13.5" transform="rotate(0,457.5,565.5)"/><circle cx="538.5" cy="565.5" r="13.5" transform="rotate(0,538.5,565.5)"/><circle cx="565.5" cy="565.5" r="13.5" transform="rotate(0,565.5,565.5)"/><circle cx="592.5" cy="565.5" r="13.5" transform="rotate(0,592.5,565.5)"/><circle cx="646.5" cy="565.5" r="13.5" transform="rotate(0,646.5,565.5)"/><circle cx="673.5" cy="565.5" r="13.5" transform="rotate(0,673.5,565.5)"/><circle cx="835.5" cy="565.5" r="13.5" transform="rotate(0,835.5,565.5)"/><circle cx="943.5" cy="565.5" r="13.5" transform="rotate(0,943.5,565.5)"/><circle cx="970.5" cy="565.5" r="13.5" transform="rotate(0,970.5,565.5)"/><circle cx="997.5" cy="565.5" r="13.5" transform="rotate(0,997.5,565.5)"/><circle cx="25.5" cy="592.5" r="13.5" transform="rotate(0,25.5,592.5)"/><circle cx="52.5" cy="592.5" r="13.5" transform="rotate(0,52.5,592.5)"/><circle cx="79.5" cy="592.5" r="13.5" transform="rotate(0,79.5,592.5)"/><circle cx="106.5" cy="592.5" r="13.5" transform="rotate(0,106.5,592.5)"/><circle cx="268.5" cy="592.5" r="13.5" transform="rotate(0,268.5,592.5)"/><circle cx="295.5" cy="592.5" r="13.5" transform="rotate(0,295.5,592.5)"/><circle cx="349.5" cy="592.5" r="13.5" transform="rotate(0,349.5,592.5)"/><circle cx="376.5" cy="592.5" r="13.5" transform="rotate(0,376.5,592.5)"/><circle cx="403.5" cy="592.5" r="13.5" transform="rotate(0,403.5,592.5)"/><circle cx="430.5" cy="592.5" r="13.5" transform="rotate(0,430.5,592.5)"/><circle cx="457.5" cy="592.5" r="13.5" transform="rotate(0,457.5,592.5)"/><circle cx="565.5" cy="592.5" r="13.5" transform="rotate(0,565.5,592.5)"/><circle cx="646.5" cy="592.5" r="13.5" transform="rotate(0,646.5,592.5)"/><circle cx="754.5" cy="592.5" r="13.5" transform="rotate(0,754.5,592.5)"/><circle cx="889.5" cy="592.5" r="13.5" transform="rotate(0,889.5,592.5)"/><circle cx="916.5" cy="592.5" r="13.5" transform="rotate(0,916.5,592.5)"/><circle cx="997.5" cy="592.5" r="13.5" transform="rotate(0,997.5,592.5)"/><circle cx="52.5" cy="619.5" r="13.5" transform="rotate(0,52.5,619.5)"/><circle cx="106.5" cy="619.5" r="13.5" transform="rotate(0,106.5,619.5)"/><circle cx="133.5" cy="619.5" r="13.5" transform="rotate(0,133.5,619.5)"/><circle cx="187.5" cy="619.5" r="13.5" transform="rotate(0,187.5,619.5)"/><circle cx="214.5" cy="619.5" r="13.5" transform="rotate(0,214.5,619.5)"/><circle cx="295.5" cy="619.5" r="13.5" transform="rotate(0,295.5,619.5)"/><circle cx="403.5" cy="619.5" r="13.5" transform="rotate(0,403.5,619.5)"/><circle cx="484.5" cy="619.5" r="13.5" transform="rotate(0,484.5,619.5)"/><circle cx="673.5" cy="619.5" r="13.5" transform="rotate(0,673.5,619.5)"/><circle cx="700.5" cy="619.5" r="13.5" transform="rotate(0,700.5,619.5)"/><circle cx="727.5" cy="619.5" r="13.5" transform="rotate(0,727.5,619.5)"/><circle cx="754.5" cy="619.5" r="13.5" transform="rotate(0,754.5,619.5)"/><circle cx="781.5" cy="619.5" r="13.5" transform="rotate(0,781.5,619.5)"/><circle cx="835.5" cy="619.5" r="13.5" transform="rotate(0,835.5,619.5)"/><circle cx="916.5" cy="619.5" r="13.5" transform="rotate(0,916.5,619.5)"/><circle cx="160.5" cy="646.5" r="13.5" transform="rotate(0,160.5,646.5)"/><circle cx="241.5" cy="646.5" r="13.5" transform="rotate(0,241.5,646.5)"/><circle cx="268.5" cy="646.5" r="13.5" transform="rotate(0,268.5,646.5)"/><circle cx="322.5" cy="646.5" r="13.5" transform="rotate(0,322.5,646.5)"/><circle cx="349.5" cy="646.5" r="13.5" transform="rotate(0,349.5,646.5)"/><circle cx="430.5" cy="646.5" r="13.5" transform="rotate(0,430.5,646.5)"/><circle cx="457.5" cy="646.5" r="13.5" transform="rotate(0,457.5,646.5)"/><circle cx="484.5" cy="646.5" r="13.5" transform="rotate(0,484.5,646.5)"/><circle cx="511.5" cy="646.5" r="13.5" transform="rotate(0,511.5,646.5)"/><circle cx="538.5" cy="646.5" r="13.5" transform="rotate(0,538.5,646.5)"/><circle cx="565.5" cy="646.5" r="13.5" transform="rotate(0,565.5,646.5)"/><circle cx="592.5" cy="646.5" r="13.5" transform="rotate(0,592.5,646.5)"/><circle cx="673.5" cy="646.5" r="13.5" transform="rotate(0,673.5,646.5)"/><circle cx="700.5" cy="646.5" r="13.5" transform="rotate(0,700.5,646.5)"/><circle cx="781.5" cy="646.5" r="13.5" transform="rotate(0,781.5,646.5)"/><circle cx="808.5" cy="646.5" r="13.5" transform="rotate(0,808.5,646.5)"/><circle cx="835.5" cy="646.5" r="13.5" transform="rotate(0,835.5,646.5)"/><circle cx="862.5" cy="646.5" r="13.5" transform="rotate(0,862.5,646.5)"/><circle cx="943.5" cy="646.5" r="13.5" transform="rotate(0,943.5,646.5)"/><circle cx="52.5" cy="673.5" r="13.5" transform="rotate(0,52.5,673.5)"/><circle cx="106.5" cy="673.5" r="13.5" transform="rotate(0,106.5,673.5)"/><circle cx="187.5" cy="673.5" r="13.5" transform="rotate(0,187.5,673.5)"/><circle cx="214.5" cy="673.5" r="13.5" transform="rotate(0,214.5,673.5)"/><circle cx="322.5" cy="673.5" r="13.5" transform="rotate(0,322.5,673.5)"/><circle cx="349.5" cy="673.5" r="13.5" transform="rotate(0,349.5,673.5)"/><circle cx="430.5" cy="673.5" r="13.5" transform="rotate(0,430.5,673.5)"/><circle cx="538.5" cy="673.5" r="13.5" transform="rotate(0,538.5,673.5)"/><circle cx="565.5" cy="673.5" r="13.5" transform="rotate(0,565.5,673.5)"/><circle cx="592.5" cy="673.5" r="13.5" transform="rotate(0,592.5,673.5)"/><circle cx="646.5" cy="673.5" r="13.5" transform="rotate(0,646.5,673.5)"/><circle cx="673.5" cy="673.5" r="13.5" transform="rotate(0,673.5,673.5)"/><circle cx="700.5" cy="673.5" r="13.5" transform="rotate(0,700.5,673.5)"/><circle cx="754.5" cy="673.5" r="13.5" transform="rotate(0,754.5,673.5)"/><circle cx="781.5" cy="673.5" r="13.5" transform="rotate(0,781.5,673.5)"/><circle cx="808.5" cy="673.5" r="13.5" transform="rotate(0,808.5,673.5)"/><circle cx="943.5" cy="673.5" r="13.5" transform="rotate(0,943.5,673.5)"/><circle cx="970.5" cy="673.5" r="13.5" transform="rotate(0,970.5,673.5)"/><circle cx="25.5" cy="700.5" r="13.5" transform="rotate(0,25.5,700.5)"/><circle cx="52.5" cy="700.5" r="13.5" transform="rotate(0,52.5,700.5)"/><circle cx="106.5" cy="700.5" r="13.5" transform="rotate(0,106.5,700.5)"/><circle cx="160.5" cy="700.5" r="13.5" transform="rotate(0,160.5,700.5)"/><circle cx="214.5" cy="700.5" r="13.5" transform="rotate(0,214.5,700.5)"/><circle cx="268.5" cy="700.5" r="13.5" transform="rotate(0,268.5,700.5)"/><circle cx="403.5" cy="700.5" r="13.5" transform="rotate(0,403.5,700.5)"/><circle cx="565.5" cy="700.5" r="13.5" transform="rotate(0,565.5,700.5)"/><circle cx="700.5" cy="700.5" r="13.5" transform="rotate(0,700.5,700.5)"/><circle cx="727.5" cy="700.5" r="13.5" transform="rotate(0,727.5,700.5)"/><circle cx="835.5" cy="700.5" r="13.5" transform="rotate(0,835.5,700.5)"/><circle cx="889.5" cy="700.5" r="13.5" transform="rotate(0,889.5,700.5)"/><circle cx="916.5" cy="700.5" r="13.5" transform="rotate(0,916.5,700.5)"/><circle cx="160.5" cy="727.5" r="13.5" transform="rotate(0,160.5,727.5)"/><circle cx="187.5" cy="727.5" r="13.5" transform="rotate(0,187.5,727.5)"/><circle cx="214.5" cy="727.5" r="13.5" transform="rotate(0,214.5,727.5)"/><circle cx="268.5" cy="727.5" r="13.5" transform="rotate(0,268.5,727.5)"/><circle cx="295.5" cy="727.5" r="13.5" transform="rotate(0,295.5,727.5)"/><circle cx="322.5" cy="727.5" r="13.5" transform="rotate(0,322.5,727.5)"/><circle cx="349.5" cy="727.5" r="13.5" transform="rotate(0,349.5,727.5)"/><circle cx="403.5" cy="727.5" r="13.5" transform="rotate(0,403.5,727.5)"/><circle cx="484.5" cy="727.5" r="13.5" transform="rotate(0,484.5,727.5)"/><circle cx="538.5" cy="727.5" r="13.5" transform="rotate(0,538.5,727.5)"/><circle cx="592.5" cy="727.5" r="13.5" transform="rotate(0,592.5,727.5)"/><circle cx="619.5" cy="727.5" r="13.5" transform="rotate(0,619.5,727.5)"/><circle cx="727.5" cy="727.5" r="13.5" transform="rotate(0,727.5,727.5)"/><circle cx="754.5" cy="727.5" r="13.5" transform="rotate(0,754.5,727.5)"/><circle cx="808.5" cy="727.5" r="13.5" transform="rotate(0,808.5,727.5)"/><circle cx="862.5" cy="727.5" r="13.5" transform="rotate(0,862.5,727.5)"/><circle cx="916.5" cy="727.5" r="13.5" transform="rotate(0,916.5,727.5)"/><circle cx="79.5" cy="754.5" r="13.5" transform="rotate(0,79.5,754.5)"/><circle cx="106.5" cy="754.5" r="13.5" transform="rotate(0,106.5,754.5)"/><circle cx="133.5" cy="754.5" r="13.5" transform="rotate(0,133.5,754.5)"/><circle cx="349.5" cy="754.5" r="13.5" transform="rotate(0,349.5,754.5)"/><circle cx="403.5" cy="754.5" r="13.5" transform="rotate(0,403.5,754.5)"/><circle cx="457.5" cy="754.5" r="13.5" transform="rotate(0,457.5,754.5)"/><circle cx="538.5" cy="754.5" r="13.5" transform="rotate(0,538.5,754.5)"/><circle cx="592.5" cy="754.5" r="13.5" transform="rotate(0,592.5,754.5)"/><circle cx="619.5" cy="754.5" r="13.5" transform="rotate(0,619.5,754.5)"/><circle cx="673.5" cy="754.5" r="13.5" transform="rotate(0,673.5,754.5)"/><circle cx="754.5" cy="754.5" r="13.5" transform="rotate(0,754.5,754.5)"/><circle cx="781.5" cy="754.5" r="13.5" transform="rotate(0,781.5,754.5)"/><circle cx="835.5" cy="754.5" r="13.5" transform="rotate(0,835.5,754.5)"/><circle cx="862.5" cy="754.5" r="13.5" transform="rotate(0,862.5,754.5)"/><circle cx="889.5" cy="754.5" r="13.5" transform="rotate(0,889.5,754.5)"/><circle cx="943.5" cy="754.5" r="13.5" transform="rotate(0,943.5,754.5)"/><circle cx="25.5" cy="781.5" r="13.5" transform="rotate(0,25.5,781.5)"/><circle cx="52.5" cy="781.5" r="13.5" transform="rotate(0,52.5,781.5)"/><circle cx="79.5" cy="781.5" r="13.5" transform="rotate(0,79.5,781.5)"/><circle cx="187.5" cy="781.5" r="13.5" transform="rotate(0,187.5,781.5)"/><circle cx="214.5" cy="781.5" r="13.5" transform="rotate(0,214.5,781.5)"/><circle cx="268.5" cy="781.5" r="13.5" transform="rotate(0,268.5,781.5)"/><circle cx="349.5" cy="781.5" r="13.5" transform="rotate(0,349.5,781.5)"/><circle cx="430.5" cy="781.5" r="13.5" transform="rotate(0,430.5,781.5)"/><circle cx="565.5" cy="781.5" r="13.5" transform="rotate(0,565.5,781.5)"/><circle cx="592.5" cy="781.5" r="13.5" transform="rotate(0,592.5,781.5)"/><circle cx="646.5" cy="781.5" r="13.5" transform="rotate(0,646.5,781.5)"/><circle cx="673.5" cy="781.5" r="13.5" transform="rotate(0,673.5,781.5)"/><circle cx="781.5" cy="781.5" r="13.5" transform="rotate(0,781.5,781.5)"/><circle cx="808.5" cy="781.5" r="13.5" transform="rotate(0,808.5,781.5)"/><circle cx="835.5" cy="781.5" r="13.5" transform="rotate(0,835.5,781.5)"/><circle cx="862.5" cy="781.5" r="13.5" transform="rotate(0,862.5,781.5)"/><circle cx="889.5" cy="781.5" r="13.5" transform="rotate(0,889.5,781.5)"/><circle cx="241.5" cy="808.5" r="13.5" transform="rotate(0,241.5,808.5)"/><circle cx="268.5" cy="808.5" r="13.5" transform="rotate(0,268.5,808.5)"/><circle cx="322.5" cy="808.5" r="13.5" transform="rotate(0,322.5,808.5)"/><circle cx="349.5" cy="808.5" r="13.5" transform="rotate(0,349.5,808.5)"/><circle cx="376.5" cy="808.5" r="13.5" transform="rotate(0,376.5,808.5)"/><circle cx="403.5" cy="808.5" r="13.5" transform="rotate(0,403.5,808.5)"/><circle cx="430.5" cy="808.5" r="13.5" transform="rotate(0,430.5,808.5)"/><circle cx="457.5" cy="808.5" r="13.5" transform="rotate(0,457.5,808.5)"/><circle cx="511.5" cy="808.5" r="13.5" transform="rotate(0,511.5,808.5)"/><circle cx="538.5" cy="808.5" r="13.5" transform="rotate(0,538.5,808.5)"/><circle cx="565.5" cy="808.5" r="13.5" transform="rotate(0,565.5,808.5)"/><circle cx="619.5" cy="808.5" r="13.5" transform="rotate(0,619.5,808.5)"/><circle cx="727.5" cy="808.5" r="13.5" transform="rotate(0,727.5,808.5)"/><circle cx="754.5" cy="808.5" r="13.5" transform="rotate(0,754.5,808.5)"/><circle cx="781.5" cy="808.5" r="13.5" transform="rotate(0,781.5,808.5)"/><circle cx="889.5" cy="808.5" r="13.5" transform="rotate(0,889.5,808.5)"/><circle cx="916.5" cy="808.5" r="13.5" transform="rotate(0,916.5,808.5)"/><circle cx="970.5" cy="808.5" r="13.5" transform="rotate(0,970.5,808.5)"/><circle cx="241.5" cy="835.5" r="13.5" transform="rotate(0,241.5,835.5)"/><circle cx="322.5" cy="835.5" r="13.5" transform="rotate(0,322.5,835.5)"/><circle cx="376.5" cy="835.5" r="13.5" transform="rotate(0,376.5,835.5)"/><circle cx="430.5" cy="835.5" r="13.5" transform="rotate(0,430.5,835.5)"/><circle cx="457.5" cy="835.5" r="13.5" transform="rotate(0,457.5,835.5)"/><circle cx="484.5" cy="835.5" r="13.5" transform="rotate(0,484.5,835.5)"/><circle cx="511.5" cy="835.5" r="13.5" transform="rotate(0,511.5,835.5)"/><circle cx="538.5" cy="835.5" r="13.5" transform="rotate(0,538.5,835.5)"/><circle cx="565.5" cy="835.5" r="13.5" transform="rotate(0,565.5,835.5)"/><circle cx="592.5" cy="835.5" r="13.5" transform="rotate(0,592.5,835.5)"/><circle cx="619.5" cy="835.5" r="13.5" transform="rotate(0,619.5,835.5)"/><circle cx="646.5" cy="835.5" r="13.5" transform="rotate(0,646.5,835.5)"/><circle cx="673.5" cy="835.5" r="13.5" transform="rotate(0,673.5,835.5)"/><circle cx="700.5" cy="835.5" r="13.5" transform="rotate(0,700.5,835.5)"/><circle cx="727.5" cy="835.5" r="13.5" transform="rotate(0,727.5,835.5)"/><circle cx="781.5" cy="835.5" r="13.5" transform="rotate(0,781.5,835.5)"/><circle cx="835.5" cy="835.5" r="13.5" transform="rotate(0,835.5,835.5)"/><circle cx="889.5" cy="835.5" r="13.5" transform="rotate(0,889.5,835.5)"/><circle cx="916.5" cy="835.5" r="13.5" transform="rotate(0,916.5,835.5)"/><circle cx="943.5" cy="835.5" r="13.5" transform="rotate(0,943.5,835.5)"/><circle cx="241.5" cy="862.5" r="13.5" transform="rotate(0,241.5,862.5)"/><circle cx="322.5" cy="862.5" r="13.5" transform="rotate(0,322.5,862.5)"/><circle cx="403.5" cy="862.5" r="13.5" transform="rotate(0,403.5,862.5)"/><circle cx="457.5" cy="862.5" r="13.5" transform="rotate(0,457.5,862.5)"/><circle cx="484.5" cy="862.5" r="13.5" transform="rotate(0,484.5,862.5)"/><circle cx="511.5" cy="862.5" r="13.5" transform="rotate(0,511.5,862.5)"/><circle cx="538.5" cy="862.5" r="13.5" transform="rotate(0,538.5,862.5)"/><circle cx="565.5" cy="862.5" r="13.5" transform="rotate(0,565.5,862.5)"/><circle cx="592.5" cy="862.5" r="13.5" transform="rotate(0,592.5,862.5)"/><circle cx="646.5" cy="862.5" r="13.5" transform="rotate(0,646.5,862.5)"/><circle cx="727.5" cy="862.5" r="13.5" transform="rotate(0,727.5,862.5)"/><circle cx="754.5" cy="862.5" r="13.5" transform="rotate(0,754.5,862.5)"/><circle cx="781.5" cy="862.5" r="13.5" transform="rotate(0,781.5,862.5)"/><circle cx="889.5" cy="862.5" r="13.5" transform="rotate(0,889.5,862.5)"/><circle cx="943.5" cy="862.5" r="13.5" transform="rotate(0,943.5,862.5)"/><circle cx="241.5" cy="889.5" r="13.5" transform="rotate(0,241.5,889.5)"/><circle cx="295.5" cy="889.5" r="13.5" transform="rotate(0,295.5,889.5)"/><circle cx="322.5" cy="889.5" r="13.5" transform="rotate(0,322.5,889.5)"/><circle cx="349.5" cy="889.5" r="13.5" transform="rotate(0,349.5,889.5)"/><circle cx="430.5" cy="889.5" r="13.5" transform="rotate(0,430.5,889.5)"/><circle cx="457.5" cy="889.5" r="13.5" transform="rotate(0,457.5,889.5)"/><circle cx="538.5" cy="889.5" r="13.5" transform="rotate(0,538.5,889.5)"/><circle cx="565.5" cy="889.5" r="13.5" transform="rotate(0,565.5,889.5)"/><circle cx="592.5" cy="889.5" r="13.5" transform="rotate(0,592.5,889.5)"/><circle cx="646.5" cy="889.5" r="13.5" transform="rotate(0,646.5,889.5)"/><circle cx="781.5" cy="889.5" r="13.5" transform="rotate(0,781.5,889.5)"/><circle cx="808.5" cy="889.5" r="13.5" transform="rotate(0,808.5,889.5)"/><circle cx="835.5" cy="889.5" r="13.5" transform="rotate(0,835.5,889.5)"/><circle cx="862.5" cy="889.5" r="13.5" transform="rotate(0,862.5,889.5)"/><circle cx="889.5" cy="889.5" r="13.5" transform="rotate(0,889.5,889.5)"/><circle cx="916.5" cy="889.5" r="13.5" transform="rotate(0,916.5,889.5)"/><circle cx="943.5" cy="889.5" r="13.5" transform="rotate(0,943.5,889.5)"/><circle cx="268.5" cy="916.5" r="13.5" transform="rotate(0,268.5,916.5)"/><circle cx="349.5" cy="916.5" r="13.5" transform="rotate(0,349.5,916.5)"/><circle cx="403.5" cy="916.5" r="13.5" transform="rotate(0,403.5,916.5)"/><circle cx="430.5" cy="916.5" r="13.5" transform="rotate(0,430.5,916.5)"/><circle cx="484.5" cy="916.5" r="13.5" transform="rotate(0,484.5,916.5)"/><circle cx="565.5" cy="916.5" r="13.5" transform="rotate(0,565.5,916.5)"/><circle cx="619.5" cy="916.5" r="13.5" transform="rotate(0,619.5,916.5)"/><circle cx="673.5" cy="916.5" r="13.5" transform="rotate(0,673.5,916.5)"/><circle cx="700.5" cy="916.5" r="13.5" transform="rotate(0,700.5,916.5)"/><circle cx="727.5" cy="916.5" r="13.5" transform="rotate(0,727.5,916.5)"/><circle cx="754.5" cy="916.5" r="13.5" transform="rotate(0,754.5,916.5)"/><circle cx="781.5" cy="916.5" r="13.5" transform="rotate(0,781.5,916.5)"/><circle cx="835.5" cy="916.5" r="13.5" transform="rotate(0,835.5,916.5)"/><circle cx="916.5" cy="916.5" r="13.5" transform="rotate(0,916.5,916.5)"/><circle cx="943.5" cy="916.5" r="13.5" transform="rotate(0,943.5,916.5)"/><circle cx="349.5" cy="943.5" r="13.5" transform="rotate(0,349.5,943.5)"/><circle cx="376.5" cy="943.5" r="13.5" transform="rotate(0,376.5,943.5)"/><circle cx="403.5" cy="943.5" r="13.5" transform="rotate(0,403.5,943.5)"/><circle cx="457.5" cy="943.5" r="13.5" transform="rotate(0,457.5,943.5)"/><circle cx="511.5" cy="943.5" r="13.5" transform="rotate(0,511.5,943.5)"/><circle cx="538.5" cy="943.5" r="13.5" transform="rotate(0,538.5,943.5)"/><circle cx="565.5" cy="943.5" r="13.5" transform="rotate(0,565.5,943.5)"/><circle cx="646.5" cy="943.5" r="13.5" transform="rotate(0,646.5,943.5)"/><circle cx="673.5" cy="943.5" r="13.5" transform="rotate(0,673.5,943.5)"/><circle cx="700.5" cy="943.5" r="13.5" transform="rotate(0,700.5,943.5)"/><circle cx="835.5" cy="943.5" r="13.5" transform="rotate(0,835.5,943.5)"/><circle cx="862.5" cy="943.5" r="13.5" transform="rotate(0,862.5,943.5)"/><circle cx="970.5" cy="943.5" r="13.5" transform="rotate(0,970.5,943.5)"/><circle cx="268.5" cy="970.5" r="13.5" transform="rotate(0,268.5,970.5)"/><circle cx="295.5" cy="970.5" r="13.5" transform="rotate(0,295.5,970.5)"/><circle cx="322.5" cy="970.5" r="13.5" transform="rotate(0,322.5,970.5)"/><circle cx="376.5" cy="970.5" r="13.5" transform="rotate(0,376.5,970.5)"/><circle cx="403.5" cy="970.5" r="13.5" transform="rotate(0,403.5,970.5)"/><circle cx="430.5" cy="970.5" r="13.5" transform="rotate(0,430.5,970.5)"/><circle cx="457.5" cy="970.5" r="13.5" transform="rotate(0,457.5,970.5)"/><circle cx="484.5" cy="970.5" r="13.5" transform="rotate(0,484.5,970.5)"/><circle cx="538.5" cy="970.5" r="13.5" transform="rotate(0,538.5,970.5)"/><circle cx="565.5" cy="970.5" r="13.5" transform="rotate(0,565.5,970.5)"/><circle cx="592.5" cy="970.5" r="13.5" transform="rotate(0,592.5,970.5)"/><circle cx="619.5" cy="970.5" r="13.5" transform="rotate(0,619.5,970.5)"/><circle cx="646.5" cy="970.5" r="13.5" transform="rotate(0,646.5,970.5)"/><circle cx="727.5" cy="970.5" r="13.5" transform="rotate(0,727.5,970.5)"/><circle cx="754.5" cy="970.5" r="13.5" transform="rotate(0,754.5,970.5)"/><circle cx="835.5" cy="970.5" r="13.5" transform="rotate(0,835.5,970.5)"/><circle cx="862.5" cy="970.5" r="13.5" transform="rotate(0,862.5,970.5)"/><circle cx="943.5" cy="970.5" r="13.5" transform="rotate(0,943.5,970.5)"/><circle cx="970.5" cy="970.5" r="13.5" transform="rotate(0,970.5,970.5)"/><circle cx="268.5" cy="997.5" r="13.5" transform="rotate(0,268.5,997.5)"/><circle cx="295.5" cy="997.5" r="13.5" transform="rotate(0,295.5,997.5)"/><circle cx="403.5" cy="997.5" r="13.5" transform="rotate(0,403.5,997.5)"/><circle cx="457.5" cy="997.5" r="13.5" transform="rotate(0,457.5,997.5)"/><circle cx="511.5" cy="997.5" r="13.5" transform="rotate(0,511.5,997.5)"/><circle cx="538.5" cy="997.5" r="13.5" transform="rotate(0,538.5,997.5)"/><circle cx="700.5" cy="997.5" r="13.5" transform="rotate(0,700.5,997.5)"/><circle cx="754.5" cy="997.5" r="13.5" transform="rotate(0,754.5,997.5)"/><circle cx="862.5" cy="997.5" r="13.5" transform="rotate(0,862.5,997.5)"/><circle cx="916.5" cy="997.5" r="13.5" transform="rotate(0,916.5,997.5)"/><circle cx="943.5" cy="997.5" r="13.5" transform="rotate(0,943.5,997.5)"/><circle cx="970.5" cy="997.5" r="13.5" transform="rotate(0,970.5,997.5)"/><circle cx="997.5" cy="997.5" r="13.5" transform="rotate(0,997.5,997.5)"/></clipPath><clipPath id="clip-path-corners-square-color-0-0-3"><path clip-rule="evenodd" d="M 12 79.5v 54a 67.5 67.5, 0, 0, 0, 67.5 67.5h 54a 67.5 67.5, 0, 0, 0, 67.5 -67.5v -54a 67.5 67.5, 0, 0, 0, -67.5 -67.5h -54a 67.5 67.5, 0, 0, 0, -67.5 67.5M 79.5 39h 54a 40.5 40.5, 0, 0, 1, 40.5 40.5v 54a 40.5 40.5, 0, 0, 1, -40.5 40.5h -54a 40.5 40.5, 0, 0, 1, -40.5 -40.5v -54a 40.5 40.5, 0, 0, 1, 40.5 -40.5" transform="rotate(0,106.5,106.5)"/></clipPath><clipPath id="clip-path-corners-dot-color-0-0-3"><circle cx="106.5" cy="106.5" r="40.5" transform="rotate(0,106.5,106.5)"/></clipPath><clipPath id="clip-path-corners-square-color-1-0-3"><path clip-rule="evenodd" d="M 822 79.5v 54a 67.5 67.5, 0, 0, 0, 67.5 67.5h 54a 67.5 67.5, 0, 0, 0, 67.5 -67.5v -54a 67.5 67.5, 0, 0, 0, -67.5 -67.5h -54a 67.5 67.5, 0, 0, 0, -67.5 67.5M 889.5 39h 54a 40.5 40.5, 0, 0, 1, 40.5 40.5v 54a 40.5 40.5, 0, 0, 1, -40.5 40.5h -54a 40.5 40.5, 0, 0, 1, -40.5 -40.5v -54a 40.5 40.5, 0, 0, 1, 40.5 -40.5" transform="rotate(90,916.5,106.5)"/></clipPath><clipPath id="clip-path-corners-dot-color-1-0-3"><circle cx="916.5" cy="106.5" r="40.5" transform="rotate(90,916.5,106.5)"/></clipPath><clipPath id="clip-path-corners-square-color-0-1-3"><path clip-rule="evenodd" d="M 12 889.5v 54a 67.5 67.5, 0, 0, 0, 67.5 67.5h 54a 67.5 67.5, 0, 0, 0, 67.5 -67.5v -54a 67.5 67.5, 0, 0, 0, -67.5 -67.5h -54a 67.5 67.5, 0, 0, 0, -67.5 67.5M 79.5 849h 54a 40.5 40.5, 0, 0, 1, 40.5 40.5v 54a 40.5 40.5, 0, 0, 1, -40.5 40.5h -54a 40.5 40.5, 0, 0, 1, -40.5 -40.5v -54a 40.5 40.5, 0, 0, 1, 40.5 -40.5" transform="rotate(-90,106.5,916.5)"/></clipPath><clipPath id="clip-path-corners-dot-color-0-1-3"><circle cx="106.5" cy="916.5" r="40.5" transform="rotate(-90,106.5,916.5)"/></clipPath></defs><rect x="0" y="0" height="1024" width="1024" clip-path="url('#clip-path-dot-color-3')" fill="#0000000"/><rect x="12" y="12" height="189" width="189" clip-path="url('#clip-path-corners-square-color-0-0-3')" fill="#5865F2"/><rect x="66" y="66" height="81" width="81" clip-path="url('#clip-path-corners-dot-color-0-0-3')" fill="#5865F2"/><rect x="822" y="12" height="189" width="189" clip-path="url('#clip-path-corners-square-color-1-0-3')" fill="#5865F2"/><rect x="876" y="66" height="81" width="81" clip-path="url('#clip-path-corners-dot-color-1-0-3')" fill="#5865F2"/><rect x="12" y="822" height="189" width="189" clip-path="url('#clip-path-corners-square-color-0-1-3')" fill="#5865F2"/><rect x="66" y="876" height="81" width="81" clip-path="url('#clip-path-corners-dot-color-0-1-3')" fill="#5865F2"/></svg>